{"title":"Iep!-AC3-XviD-DVDRip[Ned]2010 2Lions-Team","uid":5711883,"size":1461137528,"categoryP":"video","categoryS":"movies","magnet":"?xt=urn:btih:a81bb3483feec54076cd1921aaeb4256a44ce987&amp;dn=Iep%21-AC3-XviD-DVDRip%5BNed%5D2010+2Lions-Team&amp;tr=udp%3A%2F%2Ftracker.openbittorrent.com%3A80&amp;tr=udp%3A%2F%2Fopen.demonii.com%3A1337&amp;tr=udp%3A%2F%2Ftracker.coppersurfer.tk%3A6969&amp;tr=udp%3A%2F%2Fexodus.desync.com%3A6969","seeders":1,"leechers":0,"uploader":"LynnPsycho","files":8,"time":1279929104,"description":"Nederland / BelgiÃƒÂ«\nDrama / Fantasy\n81 minuten\n\ngeregisseerd door Rita Horst\nmet Huub Stapel, Joke Tjalsma en Kenadie Jourdin\n\nIep! vertelt het verhaal van Viegeltje, een wezen dat lijkt op een klein meisje. Viegeltje heeft echter in plaats van armen vleugels. De vogelwachter Warre vindt haar en neemt Viegeltje mee naar huis. Warre en zijn vrouw Tine besluiten Viegeltje op te voeden als een gewoon meisje. Maar Viegeltje is geen gewoon meisje en op een dag vliegt ze weg. Ze wil naar het Zuiden met de andere vogels.\n &lt;a href=&quot;\nhttp://www.imdb.com/title/tt1295059/&quot; rel=&quot;nofollow&quot; target=&quot;_NEW&quot;&gt;\nhttp://www.imdb.com/title/tt1295059/&lt;/a&gt;\n  &lt;a href=&quot;\nhttp://www.moviemeter.nl/film/54677&quot; rel=&quot;nofollow&quot; target=&quot;_NEW&quot;&gt;\nhttp://www.moviemeter.nl/film/54677&lt;/a&gt;\n\nNederlands gesproken.\n\nGeneral\nComplete name                    : Iep-AC3-XviD-DVDRip[Ned]2010 2Lions-TeamIep-AC3-XviD-DVDRip[Ned]2010 2Lions-Team.avi\nFormat                           : AVI\nFormat/Info                      : Audio Video Interleave\nFile size                        : 1.36 GiB\nDuration                         : 1h 16mn\nOverall bit rate                 : 2 550 Kbps\nWriting application              : VirtualDubMod 1.5.4.1 (build 2178/release)\nWriting library                  : VirtualDubMod build 2178/release\n\nVideo\nID                               : 0\nFormat                           : MPEG-4 Visual\nFormat profile                   : Simple@L3\nFormat settings, BVOP            : No\nFormat settings, QPel            : No\nFormat settings, GMC             : No warppoints\nFormat settings, Matrix          : Default (H.263)\nCodec ID                         : XVID\nCodec ID/Hint                    : XviD\nDuration                         : 1h 16mn\nBit rate                         : 2 092 Kbps\nWidth                            : 720 pixels\nHeight                           : 400 pixels\nDisplay aspect ratio             : 16:9\nFrame rate                       : 25.000 fps\nResolution                       : 8 bits\nColorimetry                      : 4:2:0\nScan type                        : Progressive\nBits/(Pixel*Frame)               : 0.291\nStream size                      : 1.12 GiB (82%)\nWriting library                  : XviD 1.1.2 (UTC 2006-11-01)\n\nAudio\nID                               : 1\nFormat                           : AC-3\nFormat/Info                      : Audio Coding 3\nFormat_Settings_ModeExtension    : CM (complete main)\nCodec ID                         : 2000\nDuration                         : 1h 16mn\nBit rate mode                    : Constant\nBit rate                         : 448 Kbps\nChannel(s)                       : 6 channels\nChannel positions                : Front: L C R, Side: L R, LFE\nSampling rate                    : 48.0 KHz\nStream size                      : 245 MiB (18%)\nAlignment                        : Split accross interleaves\nInterleave, duration             : 40 ms (1.00 video frame)\nInterleave, preload duration     : 500 ms\n\nThanks to Fast_Release Team.\n\nBrought to you by \n2Lions Team\n\nmeer zien??\nKom dan eens kijken op ons nieuwe forum \n                     &lt;a href=&quot;\nhttp://www.2lions-site.nl&quot; rel=&quot;nofollow&quot; target=&quot;_NEW&quot;&gt;\nhttp://www.2lions-site.nl&lt;/a&gt;\n\n2Lions the site to be for all your Dutch MOVIES and more\n\n******************************************\n\nDON T HIT AND RUN Niet gelijk afhaken als de FILM binnen is blijf seeden. \n\nDon`t quit after you finished the download, but keep seeding\n\nThere are fake torrents from uploaders who use our team name.\nThose are not ours, or members from our team.\nWe 2Lions-Team are not responsible for the fake posts on our name\n\nWij 2Lions-Team zijn niet verantwoordelijk voor die zieke FAKE posten die op onze naam worden gedaan\n\nPlease check our site !!!\n\nto the fakers , get a life !!!","torrent":{"xt":"urn:btih:a81bb3483feec54076cd1921aaeb4256a44ce987","amp;dn":"Iep%21-AC3-XviD-DVDRip%5BNed%5D2010+2Lions-Team","amp;tr":["udp%3A%2F%2Ftracker.openbittorrent.com%3A80","udp%3A%2F%2Fopen.demonii.com%3A1337","udp%3A%2F%2Ftracker.coppersurfer.tk%3A6969","udp%3A%2F%2Fexodus.desync.com%3A6969"],"infoHash":"a81bb3483feec54076cd1921aaeb4256a44ce987","infoHashBuffer":{"type":"Buffer","data":[168,27,179,72,63,238,197,64,118,205,25,33,170,235,66,86,164,76,233,135]},"announce":[],"urlList":[]}}